<svg xmlns="http://www.w3.org/2000/svg" viewBox="0 0 512 512">
  <rect width="512" height="512" rx="100" fill="#26C1A6"/>
  <path fill="#0B1218" transform="scale(0.6) translate(170, 170)" d="M160 80c0-26.5 21.5-48 48-48h32V16c0-8.8 7.2-16 16-16s16 7.2 16 16V32h32V16c0-8.8 7.2-16 16-16s16 7.2 16 16V32h32c26.5 0 48 21.5 48 48v32h16c8.8 0 16 7.2 16 16s-7.2 16-16 16v32h16c8.8 0 16 7.2 16 16s-7.2 16-16 16v32c0 26.5-21.5 48-48 48v32c0 8.8-7.2 16-16 16s-16-7.2-16-16V480h-32v16c0 8.8-7.2 16-16 16s-16-7.2-16-16V480H208c-26.5 0-48-21.5-48-48v-32H144c-8.8 0-16-7.2-16-16s7.2-16 16-16V336H144c-8.8 0-16-7.2-16-16s7.2-16 16-16V272H144c-8.8 0-16-7.2-16-16s7.2-16 16-16V208c0-26.5 21.5-48 48-48zM256 304a48 48 0 1 0 0-96 48 48 0 1 0 0 96z"/>
</svg>